# xmcd
#
# Track frame offsets: 
#        150
#        16334
#        32272
#        60011
#        81005
#        95317
#        111275
#        127268
#        149081
#        174394
#        190623
#        206500
#        229478
#        253297
#        271461
#        289683
#        310137
#        334747
#
# Disc length: 4735 seconds
#
# Revision: 1
# Processed by: cddbd v1.5.2PL0 Copyright (c) Steve Scherf et al.
# Submitted via: ExactAudioCopy v1.0b4
#
DISCID=00127d12
DTITLE=Robin Trower - Compendium 1987 - 2013  disc 2
DYEAR=2013
DGENRE=Blues/Rock
TTITLE0=Dressed In Gold
TTITLE1=Breathless
TTITLE2=Prince Of Shattered Dreams
TTITLE3=Another Time Another Place
TTITLE4=20th Century Blues
TTITLE5=Living Out Of Time
TTITLE6=So Far To Yesterday
TTITLE7=Blue For Soul
TTITLE8=Don't Lose Faith In Tomorrow
TTITLE9=Next In Line
TTITLE10=Sleeping On The Moon
TTITLE11=Once The Spell Is Broken
TTITLE12=See My Life
TTITLE13=Sea Of Love
TTITLE14=Wish You Were Mine
TTITLE15=Secret Place
TTITLE16=Just Another Day
TTITLE17=No Time
EXTD=
EXTT0=
EXTT1=
EXTT2=
EXTT3=
EXTT4=
EXTT5=
EXTT6=
EXTT7=
EXTT8=
EXTT9=
EXTT10=
EXTT11=
EXTT12=
EXTT13=
EXTT14=
EXTT15=
EXTT16=
EXTT17=
PLAYORDER=
